<svg width="364" height="183" viewBox="0 0 364 183" fill="none" xmlns="http://www.w3.org/2000/svg">
<g filter="url(#filter0_d_269_249)">
<path fill-rule="evenodd" clip-rule="evenodd" d="M82.5 47C65.103 47 51 61.103 51 78.5C51 95.897 65.103 110 82.5 110H263.5L313 127V78.5C313 61.103 298.897 47 281.5 47H82.5Z" fill="white"/>
<path d="M263.5 110L263.825 109.054L263.667 109H263.5V110ZM313 127L312.675 127.946L314 128.401V127H313ZM52 78.5C52 61.6553 65.6553 48 82.5 48V46C64.5507 46 50 60.5507 50 78.5H52ZM82.5 109C65.6553 109 52 95.3447 52 78.5H50C50 96.4493 64.5507 111 82.5 111V109ZM263.5 109H82.5V111H263.5V109ZM263.175 110.946L312.675 127.946L313.325 126.054L263.825 109.054L263.175 110.946ZM314 127V78.5H312V127H314ZM281.5 48C298.345 48 312 61.6553 312 78.5H314C314 60.5507 299.449 46 281.5 46V48ZM82.5 48H281.5V46H82.5V48Z" fill="#161616"/>
</g>
<path d="M84.048 73.04V67.6H90.352V73.04H84.048ZM83.728 90V87.28L85.616 74.896H88.784L90.64 87.28V90H83.728ZM94.359 90V67.6H103.991C109.623 67.6 113.271 70.512 113.271 75.44V75.504C113.271 80.816 109.207 83.6 103.671 83.6H100.567V90H94.359ZM100.567 78.736H103.543C105.719 78.736 107.095 77.552 107.095 75.792V75.728C107.095 73.808 105.719 72.816 103.511 72.816H100.567V78.736ZM123.99 90.416C118.55 90.416 114.71 86.768 114.71 81.424V81.36C114.71 76.304 118.326 72.304 123.446 72.304C129.398 72.304 132.15 76.688 132.15 81.776C132.15 82.16 132.15 82.608 132.118 83.024H120.534C121.014 84.912 122.39 85.872 124.278 85.872C125.75 85.872 126.87 85.328 128.118 84.112L131.478 86.896C129.814 89.008 127.414 90.416 123.99 90.416ZM120.438 79.92H126.486C126.262 78 125.11 76.784 123.446 76.784C121.846 76.784 120.758 78 120.438 79.92ZM141.828 90.384C137.7 90.384 134.148 86.96 134.148 81.424V81.36C134.148 75.728 137.7 72.304 141.796 72.304C144.42 72.304 145.956 73.488 147.076 74.8V66.64H153.156V90H147.076V87.696C145.892 89.136 144.42 90.384 141.828 90.384ZM143.652 85.296C145.636 85.296 147.204 83.664 147.204 81.36V81.296C147.204 79.024 145.636 77.36 143.652 77.36C141.7 77.36 140.1 78.992 140.1 81.296V81.36C140.1 83.664 141.7 85.296 143.652 85.296ZM156.445 71.12V66.64H162.749V71.12H156.445ZM156.573 90V72.688H162.621V90H156.573ZM166.038 90V72.688H172.118V76.176C173.11 73.808 174.71 72.272 177.59 72.4V78.8H177.078C173.91 78.8 172.118 80.624 172.118 84.592V90H166.038ZM193.561 90.384C190.265 90.384 187.769 88.464 187.769 85.04V84.976C187.769 81.36 190.489 79.536 194.553 79.536C196.153 79.536 197.721 79.824 198.713 80.208V79.92C198.713 78.096 197.593 77.072 195.257 77.072C193.433 77.072 192.025 77.456 190.457 78.032L189.209 73.776C191.161 72.976 193.241 72.432 196.217 72.432C199.321 72.432 201.433 73.168 202.809 74.544C204.121 75.824 204.665 77.616 204.665 80.048V90H198.681V88.176C197.465 89.488 195.833 90.384 193.561 90.384ZM195.737 86.576C197.529 86.576 198.777 85.456 198.777 83.728V82.928C198.137 82.672 197.273 82.48 196.377 82.48C194.617 82.48 193.593 83.312 193.593 84.624V84.688C193.593 85.872 194.489 86.576 195.737 86.576ZM207.757 90V66.64H213.837V75.056C214.957 73.616 216.557 72.304 219.021 72.304C222.701 72.304 224.909 74.736 224.909 78.672V90H218.861V80.624C218.861 78.704 217.869 77.68 216.397 77.68C214.925 77.68 213.837 78.704 213.837 80.624V90H207.757ZM236.87 90.416C231.366 90.416 227.366 86.352 227.366 81.424V81.36C227.366 76.432 231.398 72.304 236.934 72.304C242.47 72.304 246.47 76.368 246.47 81.296V81.36C246.47 86.288 242.438 90.416 236.87 90.416ZM236.934 85.264C239.142 85.264 240.582 83.504 240.582 81.424V81.36C240.582 79.216 239.014 77.424 236.87 77.424C234.662 77.424 233.254 79.184 233.254 81.296V81.36C233.254 83.472 234.79 85.264 236.934 85.264ZM249.038 90V72.688H255.118V76.176C256.11 73.808 257.71 72.272 260.59 72.4V78.8H260.078C256.91 78.8 255.118 80.624 255.118 84.592V90H249.038ZM266.873 90.384C263.577 90.384 261.081 88.464 261.081 85.04V84.976C261.081 81.36 263.801 79.536 267.865 79.536C269.465 79.536 271.033 79.824 272.025 80.208V79.92C272.025 78.096 270.905 77.072 268.569 77.072C266.745 77.072 265.337 77.456 263.769 78.032L262.521 73.776C264.473 72.976 266.553 72.432 269.529 72.432C272.633 72.432 274.745 73.168 276.121 74.544C277.433 75.824 277.977 77.616 277.977 80.048V90H271.993V88.176C270.777 89.488 269.145 90.384 266.873 90.384ZM269.049 86.576C270.841 86.576 272.089 85.456 272.089 83.728V82.928C271.449 82.672 270.585 82.48 269.689 82.48C267.929 82.48 266.905 83.312 266.905 84.624V84.688C266.905 85.872 267.801 86.576 269.049 86.576ZM283.054 82.704L281.166 70.32V67.6H288.078V70.32L286.222 82.704H283.054ZM281.486 90V84.56H287.79V90H281.486Z" fill="#161616"/>
<defs>
<filter id="filter0_d_269_249" x="0" y="0" width="364" height="182.401" filterUnits="userSpaceOnUse" color-interpolation-filters="sRGB">
<feFlood flood-opacity="0" result="BackgroundImageFix"/>
<feColorMatrix in="SourceAlpha" type="matrix" values="0 0 0 0 0 0 0 0 0 0 0 0 0 0 0 0 0 0 127 0" result="hardAlpha"/>
<feOffset dy="4"/>
<feGaussianBlur stdDeviation="25"/>
<feComposite in2="hardAlpha" operator="out"/>
<feColorMatrix type="matrix" values="0 0 0 0 0 0 0 0 0 0 0 0 0 0 0 0 0 0 0.1 0"/>
<feBlend mode="normal" in2="BackgroundImageFix" result="effect1_dropShadow_269_249"/>
<feBlend mode="normal" in="SourceGraphic" in2="effect1_dropShadow_269_249" result="shape"/>
</filter>
</defs>
</svg>
