<svg width="271" height="104" viewBox="0 0 271 104" fill="none" xmlns="http://www.w3.org/2000/svg">
<g filter="url(#filter0_d_418_221)">
<path d="M4 16C4 7.16344 11.1634 0 20 0H36.875H69.75H135.5H247.938C258.466 0 267 8.53414 267 19.0615V64.4562C267 74.9836 258.467 83.5177 247.94 83.5177C244.557 83.5177 240.912 83.5177 235.504 83.5177C229.474 83.5177 235.28 96 229.5 96C223.488 96 214.299 83.5177 208.5 83.5177C153.444 83.5177 89.6495 83.5177 23.0632 83.5177C12.5358 83.5177 4 74.9836 4 64.4562V62.6383V52.1986V41.7589V31.3191V20.8794V16Z" fill="url(#paint0_linear_418_221)"/>
<path d="M5.5 16C5.5 7.99187 11.9919 1.5 20 1.5H36.875H69.75H135.5H247.938C257.637 1.5 265.5 9.36257 265.5 19.0615V64.4562C265.5 74.1553 257.638 82.0177 247.94 82.0177H247.92H247.9H247.88H247.86H247.84H247.821H247.801H247.781H247.761H247.741H247.721H247.701H247.681H247.662H247.642H247.622H247.602H247.582H247.562H247.542H247.522H247.502H247.482H247.462H247.442H247.422H247.402H247.382H247.362H247.342H247.322H247.302H247.282H247.262H247.242H247.222H247.202H247.182H247.161H247.141H247.121H247.101H247.081H247.061H247.041H247.021H247H246.98H246.96H246.94H246.92H246.899H246.879H246.859H246.839H246.818H246.798H246.778H246.758H246.737H246.717H246.697H246.676H246.656H246.636H246.615H246.595H246.575H246.554H246.534H246.513H246.493H246.473H246.452H246.432H246.411H246.391H246.37H246.35H246.329H246.309H246.288H246.268H246.247H246.226H246.206H246.185H246.165H246.144H246.123H246.103H246.082H246.062H246.041H246.02H245.999H245.979H245.958H245.937H245.917H245.896H245.875H245.854H245.833H245.813H245.792H245.771H245.75H245.729H245.708H245.687H245.667H245.646H245.625H245.604H245.583H245.562H245.541H245.52H245.499H245.478H245.457H245.436H245.415H245.393H245.372H245.351H245.33H245.309H245.288H245.267H245.245H245.224H245.203H245.182H245.161H245.139H245.118H245.097H245.075H245.054H245.033H245.011H244.99H244.969H244.947H244.926H244.904H244.883H244.861H244.84H244.818H244.797H244.775H244.754H244.732H244.711H244.689H244.668H244.646H244.624H244.603H244.581H244.559H244.537H244.516H244.494H244.472H244.45H244.429H244.407H244.385H244.363H244.341H244.319H244.297H244.276H244.254H244.232H244.21H244.188H244.166H244.144H244.122H244.099H244.077H244.055H244.033H244.011H243.989H243.967H243.944H243.922H243.9H243.878H243.855H243.833H243.811H243.789H243.766H243.744H243.721H243.699H243.677H243.654H243.632H243.609H243.587H243.564H243.542H243.519H243.496H243.474H243.451H243.429H243.406H243.383H243.36H243.338H243.315H243.292H243.269H243.247H243.224H243.201H243.178H243.155H243.132H243.109H243.086H243.063H243.04H243.017H242.994H242.971H242.948H242.925H242.902H242.879H242.855H242.832H242.809H242.786H242.762H242.739H242.716H242.692H242.669H242.646H242.622H242.599H242.575H242.552H242.528H242.505H242.481H242.458H242.434H242.411H242.387H242.363H242.34H242.316H242.292H242.268H242.245H242.221H242.197H242.173H242.149H242.125H242.102H242.078H242.054H242.03H242.006H241.982H241.957H241.933H241.909H241.885H241.861H241.837H241.813H241.788H241.764H241.74H241.715H241.691H241.667H241.642H241.618H241.593H241.569H241.544H241.52H241.495H241.471H241.446H241.422H241.397H241.372H241.348H241.323H241.298H241.273H241.248H241.224H241.199H241.174H241.149H241.124H241.099H241.074H241.049H241.024H240.999H240.974H240.949H240.923H240.898H240.873H240.848H240.822H240.797H240.772H240.746H240.721H240.696H240.67H240.645H240.619H240.594H240.568H240.543H240.517H240.491H240.466H240.44H240.414H240.389H240.363H240.337H240.311H240.285H240.259H240.233H240.207H240.181H240.155H240.129H240.103H240.077H240.051H240.025H239.999H239.972H239.946H239.92H239.894H239.867H239.841H239.814H239.788H239.762H239.735H239.709H239.682H239.655H239.629H239.602H239.575H239.549H239.522H239.495H239.468H239.442H239.415H239.388H239.361H239.334H239.307H239.28H239.253H239.226H239.199H239.171H239.144H239.117H239.09H239.063H239.035H239.008H238.981H238.953H238.926H238.898H238.871H238.843H238.816H238.788H238.76H238.733H238.705H238.677H238.649H238.622H238.594H238.566H238.538H238.51H238.482H238.454H238.426H238.398H238.37H238.342H238.314H238.285H238.257H238.229H238.201H238.172H238.144H238.115H238.087H238.058H238.03H238.001H237.973H237.944H237.916H237.887H237.858H237.829H237.801H237.772H237.743H237.714H237.685H237.656H237.627H237.598H237.569H237.54H237.511H237.481H237.452H237.423H237.394H237.364H237.335H237.306H237.276H237.247H237.217H237.188H237.158H237.128H237.099H237.069H237.039H237.009H236.98H236.95H236.92H236.89H236.86H236.83H236.8H236.77H236.74H236.71H236.679H236.649H236.619H236.589H236.558H236.528H236.498H236.467H236.437H236.406H236.376H236.345H236.314H236.284H236.253H236.222H236.191H236.161H236.13H236.099H236.068H236.037H236.006H235.975H235.944H235.912H235.881H235.85H235.819H235.787H235.756H235.725H235.693H235.662H235.63H235.599H235.567H235.536H235.504C234.478 82.0177 233.562 82.2892 232.819 82.8796C232.093 83.4563 231.669 84.2289 231.413 84.9895C230.934 86.4114 230.92 88.2043 230.909 89.6766L230.908 89.747C230.895 91.3936 230.878 92.6949 230.596 93.6056C230.466 94.0247 230.318 94.2207 230.205 94.3153C230.116 94.39 229.936 94.5 229.5 94.5C228.458 94.5 227.07 93.9344 225.316 92.7926C223.604 91.6778 221.778 90.176 219.876 88.6029L219.741 88.4908C217.914 86.9804 216.016 85.4108 214.209 84.2166C212.404 83.0235 210.422 82.0177 208.5 82.0177H208.177H207.854H207.531H207.208H206.885H206.561H206.237H205.913H205.589H205.264H204.939H204.615H204.289H203.964H203.639H203.313H202.987H202.661H202.335H202.008H201.682H201.355H201.028H200.701H200.373H200.046H199.718H199.39H199.062H198.733H198.405H198.076H197.747H197.418H197.089H196.759H196.429H196.099H195.769H195.439H195.109H194.778H194.447H194.116H193.785H193.453H193.122H192.79H192.458H192.126H191.793H191.461H191.128H190.795H190.462H190.129H189.795H189.462H189.128H188.794H188.46H188.125H187.791H187.456H187.121H186.786H186.45H186.115H185.779H185.443H185.107H184.771H184.435H184.098H183.761H183.425H183.087H182.75H182.413H182.075H181.737H181.399H181.061H180.723H180.384H180.045H179.706H179.367H179.028H178.689H178.349H178.009H177.669H177.329H176.989H176.648H176.308H175.967H175.626H175.285H174.943H174.602H174.26H173.918H173.576H173.234H172.892H172.549H172.206H171.863H171.52H171.177H170.834H170.49H170.146H169.802H169.458H169.114H168.77H168.425H168.08H167.735H167.39H167.045H166.7H166.354H166.008H165.662H165.316H164.97H164.623H164.277H163.93H163.583H163.236H162.889H162.541H162.194H161.846H161.498H161.15H160.802H160.453H160.105H159.756H159.407H159.058H158.709H158.36H158.01H157.66H157.311H156.961H156.61H156.26H155.91H155.559H155.208H154.857H154.506H154.155H153.803H153.452H153.1H152.748H152.396H152.044H151.692H151.339H150.986H150.634H150.281H149.927H149.574H149.221H148.867H148.513H148.159H147.805H147.451H147.097H146.742H146.388H146.033H145.678H145.323H144.967H144.612H144.256H143.901H143.545H143.189H142.833H142.476H142.12H141.763H141.406H141.05H140.693H140.335H139.978H139.62H139.263H138.905H138.547H138.189H137.831H137.472H137.114H136.755H136.396H136.037H135.678H135.319H134.96H134.6H134.241H133.881H133.521H133.161H132.801H132.44H132.08H131.719H131.358H130.997H130.636H130.275H129.914H129.552H129.19H128.829H128.467H128.105H127.743H127.38H127.018H126.655H126.292H125.93H125.567H125.203H124.84H124.477H124.113H123.749H123.386H123.022H122.658H122.293H121.929H121.565H121.2H120.835H120.47H120.105H119.74H119.375H119.009H118.644H118.278H117.912H117.546H117.18H116.814H116.448H116.081H115.715H115.348H114.981H114.614H114.247H113.88H113.513H113.145H112.778H112.41H112.042H111.674H111.306H110.938H110.569H110.201H109.832H109.463H109.095H108.726H108.356H107.987H107.618H107.248H106.879H106.509H106.139H105.769H105.399H105.029H104.659H104.288H103.918H103.547H103.176H102.805H102.434H102.063H101.692H101.32H100.949H100.577H100.205H99.8335H99.4615H99.0893H98.7171H98.3448H97.9723H97.5997H97.227H96.8542H96.4813H96.1082H95.7351H95.3618H94.9884H94.6149H94.2413H93.8676H93.4938H93.1198H92.7457H92.3716H91.9973H91.6229H91.2484H90.8737H90.499H90.1242H89.7492H89.3741H88.999H88.6237H88.2483H87.8728H87.4972H87.1214H86.7456H86.3697H85.9936H85.6175H85.2412H84.8649H84.4884H84.1118H83.7351H83.3583H82.9814H82.6044H82.2273H81.8501H81.4728H81.0954H80.7178H80.3402H79.9625H79.5846H79.2067H78.8287H78.4505H78.0723H77.6939H77.3155H76.9369H76.5583H76.1795H75.8007H75.4217H75.0426H74.6635H74.2842H73.9049H73.5254H73.1459H72.7662H72.3865H72.0066H71.6267H71.2467H70.8665H70.4863H70.106H69.7255H69.345H68.9644H68.5837H68.2029H67.822H67.441H67.0599H66.6787H66.2974H65.916H65.5345H65.153H64.7713H64.3896H64.0077H63.6258H63.2438H62.8617H62.4795H62.0972H61.7148H61.3323H60.9497H60.5671H60.1843H59.8015H59.4185H59.0355H58.6524H58.2692H57.886H57.5026H57.1191H56.7356H56.3519H55.9682H55.5844H55.2005H54.8166H54.4325H54.0483H53.6641H53.2798H52.8954H52.5109H52.1263H51.7417H51.3569H50.9721H50.5872H50.2022H49.8172H49.432H49.0468H48.6614H48.2761H47.8906H47.505H47.1194H46.7337H46.3479H45.962H45.576H45.19H44.8039H44.4177H44.0314H43.645H43.2586H42.8721H42.4855H42.0988H41.7121H41.3253H40.9384H40.5514H40.1644H39.7772H39.39H39.0028H38.6154H38.228H37.8405H37.4529H37.0653H36.6776H36.2898H35.9019H35.514H35.126H34.7379H34.3497H33.9615H33.5732H33.1848H32.7964H32.4079H32.0193H31.6307H31.2419H30.8532H30.4643H30.0754H29.6864H29.2973H28.9082H28.519H28.1297H27.7404H27.351H26.9615H26.572H26.1824H25.7927H25.403H25.0132H24.6233H24.2334H23.8434H23.4533H23.0632C13.3641 82.0177 5.5 74.155 5.5 64.4562V62.6383V52.1986V41.7589V31.3191V20.8794V16Z" stroke="#FFAA00" stroke-width="3"/>
</g>
<path d="M27.792 37.16V32.4H33.308V37.16H27.792ZM27.512 52V49.62L29.164 38.784H31.936L33.56 49.62V52H27.512ZM36.8141 52V32.4H45.2421C50.1701 32.4 53.3621 34.948 53.3621 39.26V39.316C53.3621 43.964 49.8061 46.4 44.9621 46.4H42.2461V52H36.8141ZM42.2461 42.144H44.8501C46.7541 42.144 47.9581 41.108 47.9581 39.568V39.512C47.9581 37.832 46.7541 36.964 44.8221 36.964H42.2461V42.144ZM55.654 52V32.4H71.418V36.992H61.03V39.988H70.438V44.272H61.03V47.38H71.558V52H55.654ZM74.3571 52V32.4H81.9451C88.9171 32.4 92.9771 36.432 92.9771 42.088V42.144C92.9771 47.8 88.8611 52 81.8331 52H74.3571ZM82.0011 37.188H79.7891V47.184H82.0011C85.2771 47.184 87.4331 45.392 87.4331 42.228V42.172C87.4331 39.036 85.2771 37.188 82.0011 37.188ZM95.9346 52V32.4H101.367V52H95.9346ZM104.955 52V32.4H114.223C117.219 32.4 119.291 33.184 120.607 34.5C121.755 35.648 122.343 37.132 122.343 39.064V39.12C122.343 42.144 120.747 44.132 118.311 45.168L122.987 52H116.743L112.795 46.064H110.387V52H104.955ZM110.387 41.808H113.999C115.819 41.808 116.911 40.912 116.911 39.484V39.428C116.911 37.86 115.763 37.076 113.971 37.076H110.387V41.808ZM131.305 52L139.621 32.26H144.857L153.201 52H147.377L145.977 48.472H138.389L136.989 52H131.305ZM139.985 44.244H144.381L142.197 38.7L139.985 44.244ZM155.103 52V32.4H160.535V39.736H167.507V32.4H172.939V52H167.507V44.552H160.535V52H155.103ZM186.288 52.392C180.24 52.392 175.76 47.884 175.76 42.256V42.2C175.76 36.572 180.296 32.008 186.344 32.008C192.392 32.008 196.872 36.516 196.872 42.144V42.2C196.872 47.828 192.336 52.392 186.288 52.392ZM186.344 47.492C189.312 47.492 191.3 45.084 191.3 42.256V42.2C191.3 39.344 189.284 36.908 186.288 36.908C183.292 36.908 181.304 39.316 181.304 42.144V42.2C181.304 45.028 183.348 47.492 186.344 47.492ZM199.674 52V32.4H208.942C211.938 32.4 214.01 33.184 215.326 34.5C216.474 35.648 217.062 37.132 217.062 39.064V39.12C217.062 42.144 215.466 44.132 213.03 45.168L217.706 52H211.462L207.514 46.064H205.106V52H199.674ZM205.106 41.808H208.718C210.538 41.808 211.63 40.912 211.63 39.484V39.428C211.63 37.86 210.482 37.076 208.69 37.076H205.106V41.808ZM217.903 52L226.219 32.26H231.455L239.799 52H233.975L232.575 48.472H224.987L223.587 52H217.903ZM226.583 44.244H230.979L228.795 38.7L226.583 44.244ZM243.129 45.616L241.477 34.78V32.4H247.525V34.78L245.901 45.616H243.129ZM241.757 52V47.24H247.273V52H241.757Z" fill="#161616"/>
<defs>
<filter id="filter0_d_418_221" x="0" y="0" width="271" height="104" filterUnits="userSpaceOnUse" color-interpolation-filters="sRGB">
<feFlood flood-opacity="0" result="BackgroundImageFix"/>
<feColorMatrix in="SourceAlpha" type="matrix" values="0 0 0 0 0 0 0 0 0 0 0 0 0 0 0 0 0 0 127 0" result="hardAlpha"/>
<feOffset dy="4"/>
<feGaussianBlur stdDeviation="2"/>
<feComposite in2="hardAlpha" operator="out"/>
<feColorMatrix type="matrix" values="0 0 0 0 0 0 0 0 0 0 0 0 0 0 0 0 0 0 0.25 0"/>
<feBlend mode="normal" in2="BackgroundImageFix" result="effect1_dropShadow_418_221"/>
<feBlend mode="normal" in="SourceGraphic" in2="effect1_dropShadow_418_221" result="shape"/>
</filter>
<linearGradient id="paint0_linear_418_221" x1="49.8277" y1="-8.51974" x2="98.2212" y2="141.773" gradientUnits="userSpaceOnUse">
<stop offset="0.283719" stop-color="#FF9E6B"/>
<stop offset="1" stop-color="#FFD55E"/>
</linearGradient>
</defs>
</svg>
