<svg width="55" height="56" viewBox="0 0 55 56" fill="none" xmlns="http://www.w3.org/2000/svg">
<path d="M10.8189 43.9992L13.1769 35.4367C11.7191 32.9235 10.9544 30.0772 10.9623 27.1675C10.9623 18.05 18.4186 10.6371 27.5717 10.6371C32.0168 10.6371 36.191 12.3575 39.3217 15.4813C42.4604 18.605 44.189 22.7594 44.1811 27.1755C44.1811 36.293 36.7248 43.7059 27.5637 43.7059H27.5558C24.7756 43.7059 22.0432 43.0082 19.6135 41.6921L10.8189 43.9992ZM20.0357 38.7032L20.5376 39.0044C22.6566 40.2571 25.0863 40.9151 27.5637 40.9231H27.5717C35.1793 40.9231 41.377 34.7628 41.377 27.1834C41.377 23.5126 39.9431 20.0638 37.3382 17.4633C34.7332 14.8629 31.26 13.4358 27.5717 13.4358C19.9641 13.4278 13.7664 19.5881 13.7664 27.1675C13.7664 29.7601 14.4913 32.2892 15.8774 34.4774L16.204 35.0007L14.81 40.0668L20.0357 38.7032Z" fill="#FFAA00"/>
<path d="M10.8189 43.9992L13.1769 35.4367C11.7191 32.9235 10.9544 30.0772 10.9623 27.1675C10.9623 18.05 18.4186 10.6371 27.5717 10.6371C32.0168 10.6371 36.191 12.3575 39.3217 15.4813C42.4604 18.605 44.189 22.7594 44.1811 27.1755C44.1811 36.293 36.7248 43.7059 27.5637 43.7059H27.5558C24.7756 43.7059 22.0432 43.0082 19.6135 41.6921L10.8189 43.9992ZM20.0357 38.7032L20.5376 39.0044C22.6566 40.2571 25.0863 40.9151 27.5637 40.9231H27.5717C35.1793 40.9231 41.377 34.7628 41.377 27.1834C41.377 23.5126 39.9431 20.0638 37.3382 17.4633C34.7332 14.8629 31.26 13.4358 27.5717 13.4358C19.9641 13.4278 13.7664 19.5881 13.7664 27.1675C13.7664 29.7601 14.4913 32.2892 15.8774 34.4774L16.204 35.0007L14.81 40.0668L20.0357 38.7032Z" fill="#FFAA00"/>
<path fill-rule="evenodd" clip-rule="evenodd" d="M23.4212 20.2541C23.1105 19.5643 22.7839 19.5484 22.4891 19.5405C22.2502 19.5326 21.9713 19.5326 21.6925 19.5326C21.4137 19.5326 20.9676 19.6357 20.5852 20.0479C20.2029 20.4602 19.1354 21.4592 19.1354 23.4967C19.1354 25.5264 20.6251 27.4926 20.8322 27.7701C21.0393 28.0476 23.708 32.3526 27.922 34.0096C31.4271 35.3891 32.1441 35.1116 32.9009 35.0403C33.6577 34.9689 35.3544 34.0413 35.7049 33.0741C36.0475 32.1068 36.0475 31.2823 35.9439 31.1079C35.8404 30.9334 35.5616 30.8304 35.1473 30.6242C34.7331 30.4181 32.6937 29.4191 32.3114 29.2764C31.929 29.1417 31.6502 29.0703 31.3793 29.4826C31.1005 29.8948 30.3039 30.8224 30.0649 31.0999C29.8259 31.3774 29.579 31.4091 29.1648 31.203C28.7505 30.9969 27.4122 30.5608 25.827 29.1496C24.5922 28.0555 23.7558 26.6997 23.5168 26.2875C23.2778 25.8752 23.4929 25.6532 23.7 25.4471C23.8832 25.2647 24.1142 24.9635 24.3214 24.7256C24.5285 24.4878 24.6002 24.3133 24.7356 24.0359C24.871 23.7584 24.8073 23.5205 24.7037 23.3144C24.6002 23.1162 23.7876 21.0707 23.4212 20.2541Z" fill="#FFAA00"/>
</svg>
