<svg width="16" height="16" viewBox="0 0 16 16" fill="none" xmlns="http://www.w3.org/2000/svg">
<path d="M0.5 11.3333H2.16667M1.33333 14.6667V1.33333C1.33333 1.11232 1.42113 0.900358 1.57741 0.744078C1.73369 0.587797 1.94565 0.5 2.16667 0.5H14.6667C14.8877 0.5 15.0996 0.587797 15.2559 0.744078C15.4122 0.900358 15.5 1.11232 15.5 1.33333V14.6667C15.5 14.8877 15.4122 15.0996 15.2559 15.2559C15.0996 15.4122 14.8877 15.5 14.6667 15.5H2.16667C1.94565 15.5 1.73369 15.4122 1.57741 15.2559C1.42113 15.0996 1.33333 14.8877 1.33333 14.6667ZM12.1667 15.5H14.6667C14.8877 15.5 15.0996 15.4122 15.2559 15.2559C15.4122 15.0996 15.5 14.8877 15.5 14.6667V1.33333C15.5 1.11232 15.4122 0.900358 15.2559 0.744078C15.0996 0.587797 14.8877 0.5 14.6667 0.5H12.1667V15.5ZM0.5 4.66667H2.16667H0.5ZM0.5 8H2.16667H0.5Z" stroke="#FFAA00" stroke-linecap="round" stroke-linejoin="round"/>
</svg>
