<svg width="23" height="24" viewBox="0 0 23 24" fill="none" xmlns="http://www.w3.org/2000/svg">
<path fill-rule="evenodd" clip-rule="evenodd" d="M13.149 1.54171L20.9572 7.02454C22.1712 7.8777 22.8941 9.26819 22.895 10.7519V18.8793C22.892 20.1702 22.3763 21.407 21.4614 22.3177C20.5464 23.2283 19.3072 23.7382 18.0163 23.7352H5.15848C3.86759 23.7382 2.62837 23.2283 1.71344 22.3177C0.798505 21.407 0.282805 20.1702 0.279785 18.8793V10.7519C0.280755 9.26819 1.00364 7.8777 2.21758 7.02454L10.0258 1.54171C10.9034 0.716566 12.2714 0.716566 13.149 1.54171ZM20.2523 21.1086C20.8466 20.5186 21.1822 19.7167 21.1852 18.8793V10.7519C21.1692 9.84277 20.7203 8.99581 19.9769 8.47218L12.1687 2.98936L12.0434 2.89817C11.9233 2.77563 11.759 2.70657 11.5874 2.70657C11.4159 2.70657 11.2515 2.77563 11.1315 2.89817L11.0061 2.98936L3.19788 8.47218C2.45446 8.99581 2.00557 9.84277 1.98961 10.7519V18.8793C1.99262 19.7167 2.32818 20.5186 2.92246 21.1086C3.51674 21.6986 4.32106 22.0284 5.15848 22.0254H18.0163C18.8537 22.0284 19.6581 21.6986 20.2523 21.1086Z" fill="#FFAA00"/>
<path d="M18.5065 11.1965L12.1915 15.6078C12.0046 15.7948 11.7479 15.8951 11.4837 15.8842C11.2195 15.8734 10.9719 15.7525 10.8009 15.5508L4.66832 11.1965C4.42198 10.9834 4.07599 10.9289 3.77603 11.0558C3.47607 11.1826 3.27426 11.4689 3.25558 11.7941C3.23689 12.1192 3.40458 12.4267 3.68802 12.5872L9.72939 16.8959C10.2248 17.3571 10.8764 17.6137 11.5532 17.614C12.1898 17.5979 12.7966 17.3413 13.2516 16.8959L19.4868 12.5416C19.8452 12.2762 19.9395 11.78 19.7034 11.4017C19.4271 11.0183 18.8946 10.927 18.5065 11.1965Z" fill="#FFAA00"/>
</svg>
