<svg width="18" height="18" viewBox="0 0 18 18" fill="none" xmlns="http://www.w3.org/2000/svg">
<path fill-rule="evenodd" clip-rule="evenodd" d="M10.075 1.11918L15.7833 5.12751C16.6708 5.75123 17.1993 6.76778 17.2 7.85251V13.7942C17.1978 14.7379 16.8208 15.6421 16.1519 16.3079C15.483 16.9736 14.5771 17.3464 13.6333 17.3442H4.23333C3.2896 17.3464 2.38365 16.9736 1.71477 16.3079C1.04589 15.6421 0.668872 14.7379 0.666664 13.7942V7.85251C0.667373 6.76778 1.19585 5.75123 2.08333 5.12751L7.79167 1.11918C8.43325 0.515939 9.43342 0.515939 10.075 1.11918ZM15.268 15.424C15.7025 14.9926 15.9478 14.4064 15.95 13.7942V7.85251C15.9383 7.18784 15.6102 6.56865 15.0667 6.18584L9.35833 2.17751L9.26667 2.11084C9.17889 2.02126 9.05875 1.97078 8.93333 1.97078C8.80791 1.97078 8.68777 2.02126 8.6 2.11084L8.50833 2.17751L2.8 6.18584C2.25651 6.56865 1.92834 7.18784 1.91666 7.85251V13.7942C1.91887 14.4064 2.16419 14.9926 2.59865 15.424C3.03311 15.8553 3.62112 16.0964 4.23333 16.0942H13.6333C14.2455 16.0964 14.8336 15.8553 15.268 15.424Z" fill="#FFAA00"/>
<path d="M13.9917 8.17751L9.375 11.4025C9.23832 11.5392 9.05067 11.6125 8.85753 11.6046C8.66438 11.5967 8.48336 11.5083 8.35833 11.3608L3.87499 8.17751C3.6949 8.02175 3.44196 7.98186 3.22267 8.07461C3.00338 8.16737 2.85584 8.37667 2.84218 8.61438C2.82852 8.85209 2.95111 9.07691 3.15833 9.19418L7.575 12.3442C7.93715 12.6813 8.41352 12.8689 8.90833 12.8692C9.37369 12.8574 9.81733 12.6698 10.15 12.3442L14.7083 9.16084C14.9704 8.96688 15.0393 8.60407 14.8667 8.32751C14.6647 8.04725 14.2754 7.98052 13.9917 8.17751Z" fill="#FFAA00"/>
</svg>
