<svg width="31" height="31" viewBox="0 0 31 31" fill="none" xmlns="http://www.w3.org/2000/svg">
<path d="M28.8931 0.0834961H1.77354C1.3263 0.0868215 0.898315 0.265964 0.582058 0.582222C0.2658 0.898479 0.0866574 1.32646 0.0833321 1.7737V28.8933C0.0866574 29.3405 0.2658 29.7685 0.582058 30.0848C0.898315 30.401 1.3263 30.5802 1.77354 30.5835H16.3754V18.7902H12.4104V14.177H16.3754V10.7839C16.3754 6.84433 18.7773 4.69662 22.3102 4.69662C23.4921 4.69662 24.674 4.69662 25.8558 4.87454V8.97933H23.4285C21.5096 8.97933 21.141 9.89433 21.141 11.2287V14.1643H25.716L25.1187 18.7775H21.141V30.5835H28.8931C29.3404 30.5802 29.7683 30.401 30.0846 30.0848C30.4009 29.7685 30.58 29.3405 30.5833 28.8933V1.7737C30.58 1.32646 30.4009 0.898479 30.0846 0.582222C29.7683 0.265964 29.3404 0.0868215 28.8931 0.0834961Z" fill="#FFAA00"/>
</svg>
