<svg width="31" height="31" viewBox="0 0 31 31" fill="none" xmlns="http://www.w3.org/2000/svg">
<path d="M23.4738 9.02304C24.4845 9.02304 25.3038 8.20373 25.3038 7.19305C25.3038 6.18236 24.4845 5.36305 23.4738 5.36305C22.4631 5.36305 21.6438 6.18236 21.6438 7.19305C21.6438 8.20373 22.4631 9.02304 23.4738 9.02304Z" fill="#FFAA00"/>
<path d="M15.3333 7.50237C13.7845 7.50237 12.2704 7.96165 10.9826 8.82215C9.69477 9.68264 8.69103 10.9057 8.09831 12.3367C7.50559 13.7676 7.35051 15.3422 7.65268 16.8613C7.95484 18.3804 8.70069 19.7757 9.79589 20.8709C10.8911 21.9661 12.2865 22.712 13.8056 23.0141C15.3246 23.3163 16.8992 23.1612 18.3302 22.5685C19.7611 21.9758 20.9842 20.9721 21.8447 19.6842C22.7052 18.3964 23.1645 16.8823 23.1645 15.3335C23.1645 13.2565 22.3394 11.2647 20.8708 9.79605C19.4022 8.32743 17.4103 7.50237 15.3333 7.50237ZM15.3333 20.4168C14.3279 20.4168 13.3451 20.1187 12.5092 19.5601C11.6732 19.0016 11.0217 18.2077 10.6369 17.2788C10.2522 16.3499 10.1515 15.3279 10.3477 14.3418C10.5438 13.3557 11.028 12.45 11.7389 11.739C12.4498 11.0281 13.3556 10.544 14.3416 10.3478C15.3277 10.1517 16.3498 10.2524 17.2786 10.6371C18.2075 11.0219 19.0014 11.6734 19.56 12.5093C20.1185 13.3453 20.4167 14.3281 20.4167 15.3335C20.4167 16.6817 19.8811 17.9746 18.9278 18.928C17.9745 19.8813 16.6815 20.4168 15.3333 20.4168Z" fill="#FFAA00"/>
<path d="M15.3333 2.83129C19.4052 2.83129 19.8876 2.8468 21.4956 2.92025C22.4627 2.93176 23.4205 3.10938 24.3274 3.44536C24.9851 3.69912 25.5823 4.08773 26.0808 4.58618C26.5792 5.08464 26.9678 5.6819 27.2216 6.33955C27.5576 7.24643 27.7352 8.20431 27.7467 9.17135C27.82 10.7793 27.8357 11.2617 27.8357 15.3336C27.8357 19.4055 27.8202 19.8879 27.7467 21.4959C27.7352 22.4629 27.5576 23.4208 27.2216 24.3277C26.9678 24.9853 26.5792 25.5826 26.0808 26.0811C25.5823 26.5795 24.9851 26.9681 24.3274 27.2219C23.4205 27.5579 22.4627 27.7355 21.4956 27.747C19.8877 27.8203 19.4056 27.8359 15.3333 27.8359C11.2611 27.8359 10.7789 27.8204 9.17106 27.747C8.20402 27.7355 7.24614 27.5579 6.33927 27.2219C5.68161 26.9681 5.08435 26.5795 4.5859 26.0811C4.08744 25.5826 3.69884 24.9853 3.44507 24.3277C3.1091 23.4208 2.93147 22.4629 2.91996 21.4959C2.84664 19.8879 2.831 19.4055 2.831 15.3336C2.831 11.2617 2.84651 10.7793 2.91996 9.17135C2.93147 8.20431 3.1091 7.24643 3.44507 6.33955C3.69882 5.68187 4.08742 5.08459 4.58588 4.58611C5.08433 4.08764 5.6816 3.69901 6.33927 3.44523C7.24614 3.10926 8.20402 2.93163 9.17106 2.92012C10.779 2.8468 11.2615 2.83129 15.3333 2.83129ZM15.3333 0.0834961C11.1917 0.0834961 10.6723 0.101033 9.04576 0.17525C7.78084 0.200645 6.52938 0.440333 5.34459 0.884121C4.33139 1.27594 3.41124 1.87512 2.6431 2.64326C1.87496 3.4114 1.27578 4.33155 0.883961 5.34475C0.440102 6.52974 0.200413 7.78142 0.17509 9.04656C0.100873 10.6725 0.0833359 11.1918 0.0833359 15.3335C0.0833359 19.4751 0.100873 19.9945 0.17509 21.6211C0.200428 22.8862 0.440116 24.1379 0.883961 25.3229C1.27578 26.3361 1.87496 27.2562 2.6431 28.0244C3.41124 28.7925 4.33139 29.3917 5.34459 29.7835C6.52958 30.2274 7.78126 30.4671 9.0464 30.4924C10.6723 30.566 11.1917 30.5835 15.3333 30.5835C19.475 30.5835 19.9944 30.566 21.6209 30.4917C22.886 30.4664 24.1377 30.2267 25.3227 29.7829C26.3359 29.3911 27.2561 28.7919 28.0242 28.0237C28.7923 27.2556 29.3915 26.3354 29.7833 25.3222C30.2272 24.1372 30.4669 22.8856 30.4922 21.6204C30.5658 19.9945 30.5833 19.4751 30.5833 15.3335C30.5833 11.1918 30.5658 10.6725 30.4916 9.04592C30.4662 7.781 30.2265 6.52954 29.7827 5.34475C29.3908 4.33167 28.7916 3.41164 28.0235 2.64361C27.2553 1.87558 26.3352 1.2765 25.3221 0.884756C24.1371 0.440912 22.8854 0.201224 21.6203 0.175886C19.9944 0.101034 19.475 0.0834961 15.3333 0.0834961Z" fill="#FFAA00"/>
</svg>
