<svg width="28" height="29" viewBox="0 0 28 29" fill="none" xmlns="http://www.w3.org/2000/svg">
<path d="M23.9375 17.9838V22.4635C23.941 22.7929 23.8731 23.119 23.7385 23.4196C23.6038 23.7202 23.4056 23.9881 23.1576 24.2047C22.9095 24.4214 22.6174 24.5817 22.3014 24.6747C21.9855 24.7676 21.6531 24.791 21.3272 24.7433C16.8098 24.163 12.6139 22.0961 9.40061 18.8684C6.18731 15.6406 4.1393 11.4355 3.57927 6.91554C3.53165 6.59061 3.55479 6.25924 3.6471 5.94408C3.73942 5.62893 3.89873 5.33744 4.11413 5.08956C4.32954 4.84169 4.59595 4.64327 4.89515 4.5079C5.19434 4.37252 5.51925 4.30338 5.84764 4.30521H10.259C10.5408 4.3035 10.8132 4.40623 11.0237 4.59358C11.2342 4.78093 11.3679 5.03961 11.3989 5.31971C11.512 6.8136 11.8983 8.27405 12.5387 9.62845C12.6486 9.88496 12.6605 10.1728 12.5722 10.4375C12.484 10.7022 12.3017 10.9254 12.06 11.0647L11.0797 11.6232C10.9384 11.701 10.8152 11.8078 10.7182 11.9366C10.6213 12.0655 10.5527 12.2134 10.5172 12.3707C10.4816 12.528 10.4799 12.6911 10.512 12.8491C10.5441 13.0071 10.6094 13.1565 10.7035 13.2875C11.8312 14.9394 13.2578 16.3659 14.9097 17.4936C15.0406 17.5878 15.19 17.6531 15.3481 17.6852C15.5061 17.7173 15.6691 17.7155 15.8264 17.68C15.9837 17.6444 16.1317 17.5759 16.2605 17.4789C16.3894 17.382 16.4962 17.2588 16.5739 17.1175L17.1325 16.1372C17.2801 15.8923 17.5144 15.7118 17.7889 15.6315C18.0634 15.5513 18.358 15.5772 18.6143 15.704C19.9687 16.3444 21.4292 16.7308 22.9231 16.8439C23.2031 16.8749 23.4618 17.0085 23.6492 17.219C23.8365 17.4295 23.9393 17.702 23.9375 17.9838Z" stroke="#FFAA00" stroke-width="1.36786" stroke-linecap="round" stroke-linejoin="round"/>
</svg>
