<svg width="20" height="20" viewBox="0 0 20 20" fill="none" xmlns="http://www.w3.org/2000/svg">
<path d="M17.5 12.5V15.775C17.5025 16.0158 17.4529 16.2543 17.3545 16.474C17.256 16.6938 17.1111 16.8896 16.9298 17.048C16.7484 17.2064 16.5349 17.3236 16.3039 17.3915C16.0729 17.4595 15.8299 17.4766 15.5917 17.4417C12.2891 17.0175 9.22162 15.5064 6.87247 13.1467C4.52333 10.787 3.02608 7.71276 2.61666 4.40836C2.58185 4.17082 2.59876 3.92856 2.66625 3.69816C2.73374 3.46776 2.85021 3.25466 3.00768 3.07344C3.16516 2.89223 3.35993 2.74717 3.57866 2.6482C3.79739 2.54923 4.03492 2.49869 4.275 2.50003H7.5C7.70601 2.49878 7.90518 2.57388 8.05908 2.71085C8.21297 2.84781 8.31067 3.03693 8.33333 3.24169C8.41603 4.33384 8.69848 5.40153 9.16666 6.39169C9.24695 6.57922 9.25566 6.78967 9.19115 6.98319C9.12665 7.17671 8.9934 7.33984 8.81666 7.44169L8.1 7.85003C7.9967 7.90684 7.90663 7.98493 7.83574 8.07913C7.76485 8.17333 7.71475 8.28149 7.68876 8.39649C7.66277 8.51148 7.66147 8.63068 7.68496 8.74621C7.70844 8.86174 7.75617 8.97097 7.825 9.06669C8.64944 10.2743 9.69235 11.3173 10.9 12.1417C10.9957 12.2105 11.105 12.2582 11.2205 12.2817C11.336 12.3052 11.4552 12.3039 11.5702 12.2779C11.6852 12.2519 11.7934 12.2018 11.8876 12.131C11.9818 12.0601 12.0599 11.97 12.1167 11.8667L12.525 11.15C12.6329 10.971 12.8042 10.839 13.0049 10.7804C13.2056 10.7217 13.421 10.7406 13.6083 10.8334C14.5985 11.3015 15.6662 11.584 16.7583 11.6667C16.9631 11.6893 17.1522 11.7871 17.2892 11.9409C17.4261 12.0948 17.5012 12.294 17.5 12.5Z" stroke="#FFAA00" stroke-linecap="round" stroke-linejoin="round"/>
</svg>
