<svg width="20" height="20" viewBox="0 0 20 20" fill="none" xmlns="http://www.w3.org/2000/svg">
<path d="M10.4583 12.1917L16.2083 8.33333C16.3337 8.25079 16.479 8.20363 16.6289 8.19682C16.7788 8.19001 16.9278 8.22382 17.0601 8.29466C17.1924 8.3655 17.3031 8.47076 17.3805 8.59931C17.4579 8.72786 17.4992 8.87493 17.5 9.025V16.6667C17.5 16.8877 17.4122 17.0996 17.2559 17.2559C17.0996 17.4122 16.8877 17.5 16.6667 17.5H3.33333C3.11232 17.5 2.90036 17.4122 2.74408 17.2559C2.5878 17.0996 2.5 16.8877 2.5 16.6667V9.05833C2.49461 8.90545 2.53141 8.75403 2.60636 8.62067C2.68131 8.48731 2.79153 8.37715 2.92493 8.30227C3.05834 8.2274 3.20978 8.19069 3.36266 8.19616C3.51554 8.20164 3.66397 8.2491 3.79167 8.33333L9.54167 12.1583C9.67445 12.253 9.83206 12.3065 9.995 12.3125C10.1579 12.3184 10.319 12.2764 10.4583 12.1917ZM9.54167 12.1917C9.67773 12.2813 9.83708 12.329 10 12.329C10.1629 12.329 10.3223 12.2813 10.4583 12.1917L15 9.16667V2.5H5V9.16667L9.54167 12.1917Z" stroke="#FFAA00" stroke-linecap="round" stroke-linejoin="round"/>
</svg>
