<svg width="27" height="30" viewBox="0 0 27 30" fill="none" xmlns="http://www.w3.org/2000/svg">
<g clip-path="url(#clip0_269_982)">
<path d="M27 12.2994C24.3467 12.3056 21.7584 11.5011 19.6009 9.99961V20.4715C19.6002 22.411 18.9904 24.3041 17.8532 25.8975C16.716 27.491 15.1054 28.709 13.237 29.3886C11.3685 30.0682 9.33121 30.177 7.39744 29.7005C5.46367 29.2239 3.72562 28.1848 2.4157 26.722C1.10577 25.2592 0.286412 23.4425 0.0671749 21.5147C-0.152062 19.5869 0.239274 17.6401 1.18886 15.9344C2.13844 14.2287 3.601 12.8455 5.38099 11.9697C7.16097 11.094 9.17353 10.7675 11.1496 11.0338V16.3008C10.2453 16.0243 9.27434 16.0326 8.37527 16.3246C7.47619 16.6166 6.69501 17.1773 6.14328 17.9267C5.59154 18.6761 5.29746 19.5758 5.30305 20.4973C5.30863 21.4189 5.61359 22.3152 6.17436 23.0582C6.73514 23.8012 7.52306 24.3529 8.42561 24.6346C9.32816 24.9163 10.2992 24.9135 11.2 24.6266C12.1008 24.3398 12.8854 23.7835 13.4416 23.0373C13.9979 22.2911 14.2974 21.3931 14.2973 20.4715V0H19.6009C19.5972 0.435434 19.6348 0.870274 19.713 1.29902C19.8973 2.25614 20.2805 3.16665 20.8391 3.97484C21.3978 4.78304 22.1202 5.47195 22.9621 5.99941C24.1598 6.76939 25.5641 7.17979 27 7.17949V12.2994Z" fill="#FFAA00"/>
</g>
<defs>
<clipPath id="clip0_269_982">
<rect width="27" height="30" fill="white"/>
</clipPath>
</defs>
</svg>
