<svg width="25" height="26" viewBox="0 0 25 26" fill="none" xmlns="http://www.w3.org/2000/svg">
<path d="M1.7356 23.75L3.28244 18.1329C2.32611 16.4842 1.82443 14.6171 1.82966 12.7083C1.82966 6.72717 6.72102 1.86426 12.7255 1.86426C15.6415 1.86426 18.3798 2.99287 20.4335 5.04206C22.4925 7.09124 23.6265 9.81655 23.6213 12.7135C23.6213 18.6946 18.7299 23.5575 12.7203 23.5575H12.715C10.8912 23.5575 9.09876 23.0998 7.50489 22.2365L1.7356 23.75ZM7.78186 20.2757L8.11109 20.4734C9.50115 21.2951 11.095 21.7268 12.7203 21.732H12.7255C17.7161 21.732 21.7818 17.6908 21.7818 12.7187C21.7818 10.3106 20.8412 8.04822 19.1323 6.3423C17.4235 4.63638 15.145 3.7002 12.7255 3.7002C7.73483 3.695 3.66915 7.73616 3.66915 12.7083C3.66915 14.409 4.14469 16.0681 5.05399 17.5036L5.26824 17.8469L4.35373 21.1703L7.78186 20.2757Z" fill="#FFAA00"/>
<path d="M1.7356 23.75L3.28244 18.1329C2.32611 16.4842 1.82443 14.6171 1.82966 12.7083C1.82966 6.72717 6.72102 1.86426 12.7255 1.86426C15.6415 1.86426 18.3798 2.99287 20.4335 5.04206C22.4925 7.09124 23.6265 9.81655 23.6213 12.7135C23.6213 18.6946 18.7299 23.5575 12.7203 23.5575H12.715C10.8912 23.5575 9.09876 23.0998 7.50489 22.2365L1.7356 23.75ZM7.78186 20.2757L8.11109 20.4734C9.50115 21.2951 11.095 21.7268 12.7203 21.732H12.7255C17.7161 21.732 21.7818 17.6908 21.7818 12.7187C21.7818 10.3106 20.8412 8.04822 19.1323 6.3423C17.4235 4.63638 15.145 3.7002 12.7255 3.7002C7.73483 3.695 3.66915 7.73616 3.66915 12.7083C3.66915 14.409 4.14469 16.0681 5.05399 17.5036L5.26824 17.8469L4.35373 21.1703L7.78186 20.2757Z" fill="#FFAA00"/>
<path fill-rule="evenodd" clip-rule="evenodd" d="M10.0029 8.173C9.79909 7.72051 9.58483 7.71011 9.39147 7.70491C9.2347 7.69971 9.05179 7.69971 8.86889 7.69971C8.68599 7.69971 8.39334 7.76732 8.1425 8.03777C7.89166 8.30822 7.19141 8.96354 7.19141 10.3002C7.19141 11.6316 8.16863 12.9215 8.3045 13.1035C8.44037 13.2856 10.191 16.1097 12.9555 17.1967C15.2548 18.1017 15.7252 17.9196 16.2216 17.8728C16.7181 17.826 17.8312 17.2175 18.0611 16.583C18.2858 15.9485 18.2858 15.4076 18.2179 15.2931C18.1499 15.1787 17.967 15.1111 17.6953 14.9759C17.4235 14.8407 16.0857 14.1853 15.8349 14.0917C15.5841 14.0033 15.4012 13.9565 15.2235 14.2269C15.0406 14.4974 14.518 15.1059 14.3612 15.2879C14.2044 15.47 14.0424 15.4908 13.7707 15.3555C13.499 15.2203 12.621 14.9343 11.5811 14.0085C10.7711 13.2908 10.2224 12.4014 10.0656 12.1309C9.90883 11.8605 10.0499 11.7149 10.1858 11.5796C10.306 11.46 10.4575 11.2624 10.5934 11.1063C10.7293 10.9503 10.7763 10.8359 10.8652 10.6539C10.954 10.4718 10.9122 10.3158 10.8442 10.1806C10.7763 10.0505 10.2433 8.7087 10.0029 8.173Z" fill="#FFAA00"/>
</svg>
