<svg width="18" height="18" viewBox="0 0 18 18" fill="none" xmlns="http://www.w3.org/2000/svg">
<path d="M1 17L2.13085 12.8935C1.43171 11.6882 1.06495 10.3232 1.06877 8.92776C1.06877 4.55513 4.6447 1 9.03438 1C11.1662 1 13.1681 1.82509 14.6695 3.32319C16.1748 4.82129 17.0038 6.81369 17 8.93156C17 13.3042 13.4241 16.8593 9.03056 16.8593H9.02674C7.6934 16.8593 6.38299 16.5247 5.21776 15.8935L1 17ZM5.42024 14.4601L5.66093 14.6046C6.67717 15.2053 7.8424 15.5209 9.03056 15.5247H9.03438C12.6829 15.5247 15.6552 12.5703 15.6552 8.93536C15.6552 7.17491 14.9675 5.52091 13.7182 4.27376C12.4689 3.02662 10.8032 2.34221 9.03438 2.34221C5.38586 2.3384 2.41356 5.29278 2.41356 8.92776C2.41356 10.1711 2.76122 11.384 3.42598 12.4335L3.58261 12.6844L2.91404 15.1141L5.42024 14.4601Z" fill="#FFAA00"/>
<path d="M1 17L2.13085 12.8935C1.43171 11.6882 1.06495 10.3232 1.06877 8.92776C1.06877 4.55513 4.6447 1 9.03438 1C11.1662 1 13.1681 1.82509 14.6695 3.32319C16.1748 4.82129 17.0038 6.81369 17 8.93156C17 13.3042 13.4241 16.8593 9.03056 16.8593H9.02674C7.6934 16.8593 6.38299 16.5247 5.21776 15.8935L1 17ZM5.42024 14.4601L5.66093 14.6046C6.67717 15.2053 7.8424 15.5209 9.03056 15.5247H9.03438C12.6829 15.5247 15.6552 12.5703 15.6552 8.93536C15.6552 7.17491 14.9675 5.52091 13.7182 4.27376C12.4689 3.02662 10.8032 2.34221 9.03438 2.34221C5.38586 2.3384 2.41356 5.29278 2.41356 8.92776C2.41356 10.1711 2.76122 11.384 3.42598 12.4335L3.58261 12.6844L2.91404 15.1141L5.42024 14.4601Z" fill="#FFAA00"/>
<path fill-rule="evenodd" clip-rule="evenodd" d="M7.04389 5.61212C6.89489 5.28132 6.73825 5.27372 6.5969 5.26992C6.48229 5.26611 6.34857 5.26611 6.21485 5.26611C6.08114 5.26611 5.8672 5.31554 5.68381 5.51326C5.50043 5.71098 4.98849 6.19007 4.98849 7.16725C4.98849 8.14064 5.70292 9.0836 5.80225 9.21668C5.90158 9.34976 7.18142 11.4144 9.20244 12.2091C10.8834 12.8707 11.2273 12.7376 11.5902 12.7034C11.9532 12.6692 12.7669 12.2243 12.935 11.7604C13.0993 11.2965 13.0993 10.9011 13.0496 10.8174C12.9999 10.7338 12.8662 10.6844 12.6676 10.5855C12.4689 10.4866 11.4909 10.0076 11.3075 9.93912C11.1241 9.87448 10.9904 9.84026 10.8605 10.038C10.7268 10.2357 10.3447 10.6806 10.2301 10.8136C10.1155 10.9467 9.99709 10.9619 9.79842 10.8631C9.59976 10.7642 8.95793 10.5551 8.19766 9.87828C7.60549 9.35357 7.20435 8.70338 7.08973 8.50566C6.97512 8.30794 7.07827 8.20147 7.1776 8.10262C7.26547 8.01516 7.37627 7.87068 7.4756 7.75661C7.57493 7.64254 7.60931 7.55889 7.67426 7.42581C7.73921 7.29273 7.70865 7.17866 7.65898 7.0798C7.60931 6.98474 7.21963 6.00376 7.04389 5.61212Z" fill="#FFAA00"/>
</svg>
