<svg width="60" height="60" viewBox="0 0 60 60" fill="none" xmlns="http://www.w3.org/2000/svg">
<path fill-rule="evenodd" clip-rule="evenodd" d="M30 0C46.5685 0 60 13.4315 60 30C60 46.5685 46.5685 60 30 60C13.4315 60 0 46.5685 0 30C0 13.4315 13.4315 0 30 0ZM14.1703 16.6695C17.3437 15.8449 29.9875 15.8449 29.9875 15.8449C29.9875 15.8449 42.6563 15.8449 45.8297 16.7195C47.5538 17.1693 48.9279 18.5434 49.3777 20.2675C50.2523 23.441 50.2273 30.0379 50.2273 30.0379C50.2273 30.0379 50.2273 36.6097 49.3777 39.7582C48.9279 41.5073 47.5538 42.8564 45.8297 43.3312C42.6563 44.1558 29.9875 44.1558 29.9875 44.1558C29.9875 44.1558 17.3687 44.1558 14.1703 43.3062C12.4462 42.8314 11.072 41.4573 10.5973 39.7332C9.77266 36.6097 9.77264 30.0129 9.77264 30.0129C9.77264 30.0129 9.77266 23.441 10.5973 20.2675C11.072 18.5434 12.4711 17.1443 14.1703 16.6695ZM36.4844 30.0129L25.9644 23.941V36.0597L36.4844 30.0129Z" fill="#FFAA00"/>
</svg>
